<svg width="239" height="147" viewBox="0 0 239 147" fill="none" xmlns="http://www.w3.org/2000/svg">
<g clip-path="url(#clip0_114_4)">
<path d="M106.036 30.4928L119.355 91.0304L132.664 30.4928H106.036ZM116.021 0H88.8063L102.416 22.2126L116.021 0ZM131.209 24.7945L119.35 5.43581L107.491 24.7945H131.209ZM66.2284 30.4928L115.148 91.0304L100.198 30.4928H66.2284ZM149.894 0H122.679L136.284 22.2126L149.894 0ZM172.55 24.7945L155.085 2.3928L141.36 24.7945H172.55ZM123.561 91.0304L172.47 30.4928H138.501L123.561 91.0304ZM83.6152 2.39162L66.1504 24.7934H97.3407L83.6152 2.39162Z" fill="#363636"/>
<path d="M10.2741 19.7663C7.18035 20.0887 4.62401 21.4321 2.61272 23.8042C0.593744 26.1686 -0.250687 28.8785 0.0640573 31.9185C0.125471 32.5173 0.202229 33.093 0.294349 33.6304C0.386469 34.1678 0.470915 34.6361 0.547682 35.0352C0.624449 35.4344 0.731921 35.8567 0.870102 36.2942C1.00828 36.7395 1.11576 37.0772 1.18485 37.3152C1.25394 37.5532 1.37677 37.8679 1.54566 38.2518C1.71454 38.6433 1.82969 38.8966 1.8911 39.0041C1.94484 39.1192 2.06768 39.3649 2.2596 39.7564C2.45151 40.1402 2.56666 40.3629 2.58969 40.4013C2.8814 40.954 3.11939 41.2227 3.30363 41.1996C3.37272 41.1996 3.59534 41.0922 3.9715 40.8849C4.34765 40.6853 4.74685 40.5625 5.16139 40.5164C5.20745 40.5164 5.50683 40.4627 6.06723 40.3706C6.63531 40.2784 7.15733 40.2093 7.64096 40.1556C9.02277 40.0097 9.8058 40.0481 9.99771 40.2631C10.1282 40.455 10.2971 40.7928 10.5044 41.2764C10.704 41.7524 10.8114 42.0671 10.8268 42.2053C10.8345 42.2974 11.011 42.3204 11.3565 42.2897C11.5407 42.2667 11.7019 42.2283 11.8401 42.1669C11.4793 39.8716 11.2951 38.6356 11.272 38.4514C11.2644 38.3823 11.1646 36.8623 10.9726 33.8991C10.8728 33.8146 10.6809 33.7839 10.3892 33.8146C10.0975 33.8453 9.95932 33.9068 9.97467 33.9989C10.0131 34.3674 9.99771 34.8894 9.92094 35.5649C9.85185 36.2328 9.706 36.632 9.49105 36.7471C9.02277 36.9774 8.04015 37.177 6.5432 37.3306L6.29754 37.3613L3.46483 37.6914C3.18847 37.7144 3.00424 37.653 2.91979 37.4995C2.31333 36.5859 1.89879 35.112 1.69151 33.0777C1.42283 30.5213 2.27494 28.2797 4.25553 26.3606C6.23612 24.4414 8.50843 23.3436 11.0724 23.0749C13.8361 22.7909 16.2849 23.3129 18.4037 24.6563C20.5301 25.9998 21.7124 27.8191 21.9503 30.1298C22.3802 34.2138 21.0445 36.7318 17.9431 37.6837C17.8356 37.7605 17.7972 37.9217 17.8203 38.152C17.874 38.6356 18.0659 38.8582 18.4114 38.8199C18.6494 38.7968 20.0695 38.6049 22.695 38.2364C23.3321 34.2983 23.5624 31.5116 23.3936 29.8765C23.0635 26.6907 21.6126 24.1266 19.0409 22.1768C16.4692 20.2269 13.5443 19.4285 10.2741 19.7663ZM27.3471 49.383L27.3547 49.0529C27.301 48.8994 27.2396 48.7689 27.1551 48.6614C27.0707 48.5539 26.9632 48.4618 26.8174 48.4004C26.6792 48.339 26.5487 48.2852 26.4412 48.2468C26.3337 48.2085 26.1725 48.1778 25.9499 48.1471C25.7349 48.1163 25.5584 48.101 25.4279 48.0933C25.2897 48.0856 25.0901 48.0856 24.8214 48.0856C24.5527 48.0856 24.3531 48.078 24.2303 48.0703L7.57954 47.0032C5.9137 46.8958 4.70846 46.7115 3.96382 46.4351C3.71817 46.343 3.47251 46.105 3.22686 45.7212C2.9812 45.3374 2.81999 45.0073 2.73555 44.7463C2.70484 44.6542 2.53595 44.6618 2.22888 44.754C1.98323 44.8384 1.8297 44.9305 1.77596 45.0457C1.91414 45.4141 2.05999 45.8057 2.21352 46.2048C2.36706 46.604 2.50525 46.9725 2.62807 47.2949C2.75858 47.6174 2.88908 48.0012 3.03494 48.4464C3.05029 48.5079 3.35736 49.667 3.94847 51.9163C4.07129 51.924 4.27088 51.8779 4.53189 51.7858C4.7929 51.686 4.91573 51.6092 4.8927 51.5402C4.83128 51.3406 4.77755 51.0105 4.73917 50.5345C4.69311 50.0586 4.72381 49.6977 4.80825 49.4521C4.88502 49.2295 5.08462 49.0759 5.39169 48.9761C5.81391 48.838 6.63531 48.7842 7.85591 48.8149L11.9553 49.0836L12.1088 49.2141C12.746 50.8416 13.245 52.2234 13.6134 53.3749C13.8744 54.1963 14.1047 55.0407 14.312 55.9236C14.335 55.9926 14.312 56.0771 14.2429 56.1692L10.9266 58.7179L10.6042 58.9635C10.4046 59.1017 10.1205 59.2706 9.75973 59.4702C9.39892 59.6698 9.07651 59.8156 8.78479 59.9078C8.60823 59.9615 8.42399 59.9999 8.23207 60.0076C8.03247 59.9999 7.81752 59.8156 7.57954 59.4472C7.34157 59.0864 7.18804 58.7716 7.10359 58.5029C7.07289 58.4185 6.91935 58.4108 6.63531 58.4876C6.35895 58.5643 6.19006 58.6641 6.12865 58.7793C7.04218 61.2896 7.51045 62.5485 7.51813 62.5716C7.58722 62.7942 7.91732 64.0302 8.50843 66.2718C8.65429 66.2794 8.76943 66.2641 8.86155 66.2334C9.27609 66.1029 9.4757 65.9877 9.44499 65.9033C9.36055 65.6346 9.33751 65.197 9.37589 64.5752C9.4066 63.9534 9.56781 63.5312 9.85953 63.2932C10.3355 62.871 11.0264 62.2952 11.9399 61.5736L27.3471 49.383ZM14.1585 49.3369C14.1431 49.2909 14.1815 49.2525 14.266 49.2218L22.5645 49.7285L16.093 54.7413L15.8934 54.6953C15.4942 53.6743 15.1488 52.684 14.834 51.709C14.7035 51.2868 14.4732 50.4961 14.1585 49.3369ZM31.0549 60.4605C30.8169 60.0613 30.6097 59.6928 30.4254 59.3397C30.2412 58.9866 30.0416 58.6027 29.8113 58.1882C29.5887 57.766 29.3891 57.3821 29.2048 57.029C29.0743 56.9983 28.9054 57.0444 28.6828 57.1749C28.4064 57.3437 28.2913 57.4666 28.3374 57.5433C28.5062 57.8274 28.7058 58.311 28.9515 59.0096C29.1895 59.7005 29.2432 60.1227 29.1204 60.2839C28.867 60.5373 28.4986 60.8136 27.9996 61.113C27.6772 61.3049 26.9402 61.7195 25.7657 62.3643C24.5988 63.0091 22.9944 63.9073 20.9524 65.0588C18.9104 66.218 16.8453 67.3925 14.7496 68.5901C13.3524 69.3655 12.3775 69.7109 11.8324 69.6034C11.5484 69.5343 11.1722 69.258 10.7193 68.7897C10.2587 68.3214 9.95164 67.9453 9.78275 67.6689C9.72134 67.5691 9.55246 67.5998 9.2761 67.7687C9.07651 67.8839 8.95368 68.022 8.9153 68.1832C10.3815 70.4172 11.1339 71.5533 11.1569 71.5917C11.3411 71.9065 11.986 73.0887 13.0761 75.146C13.2219 75.1076 13.3678 75.0462 13.529 74.9541C13.8284 74.7775 13.9512 74.647 13.9052 74.5626C13.79 74.363 13.6211 73.9177 13.4062 73.2192C13.1912 72.5283 13.1298 72.0677 13.2219 71.8527C13.3064 71.6378 13.529 71.4228 13.8898 71.2155C13.9282 71.1848 14.7649 70.7242 16.4078 69.8261C18.0429 68.9279 20.1233 67.7841 22.6412 66.3869C25.1515 64.9897 27.3778 63.7384 29.3123 62.6407L16.0239 79.8672C16.0546 80.013 16.0853 80.1128 16.1237 80.1743C16.3387 80.5274 16.9835 80.6425 18.0659 80.512L36.728 77.8252C36.9046 77.8022 37.0043 77.8098 37.0274 77.8482C37.0888 77.948 36.9353 78.1706 36.5591 78.5161C36.1829 78.8615 35.8452 79.1379 35.5381 79.3529L25.236 85.9932L23.6546 86.9374C22.9406 87.3673 22.4416 87.5055 22.1576 87.352C21.9503 87.2292 21.674 86.9912 21.3285 86.6457C20.9907 86.3003 20.7528 86.0239 20.6376 85.8243C20.5916 85.7475 20.438 85.7859 20.177 85.9395C19.939 86.0776 19.8009 86.2158 19.7702 86.3387C21.2364 88.5726 22.0041 89.7394 22.0655 89.8392C22.2881 90.2154 22.9483 91.4283 24.0384 93.478C24.1843 93.4473 24.3455 93.3782 24.522 93.2707C24.7984 93.1018 24.9135 92.979 24.8675 92.9022C24.737 92.6796 24.5834 92.2727 24.3992 91.6816C24.2226 91.0829 24.1996 90.699 24.3301 90.5071C24.8598 89.8162 25.6889 89.1176 26.8097 88.419C34.4634 83.5981 38.4552 81.0878 38.77 80.9035C39.9292 80.2126 40.6661 79.9286 40.9886 80.0668C41.2342 80.1589 41.5336 80.3508 41.8714 80.6272C42.2168 80.9112 42.4548 81.1569 42.5853 81.3795L42.6237 81.4409C42.6774 81.5407 42.8463 81.5023 43.1304 81.3411C43.2455 81.2644 43.376 81.1492 43.5219 80.9803C42.8463 80.0284 42.1401 78.9383 41.4031 77.71C41.1805 77.3262 40.7199 76.4818 40.0443 75.1537L35.7454 76.1056C32.0836 76.7197 27.3854 77.426 21.6433 78.209C21.5511 78.2397 21.4821 78.2167 21.4283 78.1323C21.3976 78.0708 21.3899 78.0248 21.4206 77.9787C28.6598 68.4903 32.4751 63.5312 32.8436 63.1243C32.0913 62.0879 31.4925 61.1974 31.0549 60.4605ZM41.8407 84.9722L31.669 93.8388C30.5866 94.7907 29.7499 95.4048 29.1741 95.6966C28.9899 95.7656 28.6521 95.6198 28.1531 95.2667C27.6618 94.9135 27.3164 94.6218 27.1168 94.3915C27.0553 94.3224 26.9018 94.3992 26.6562 94.6141C26.4642 94.7754 26.3644 94.9289 26.3568 95.0594C28.1992 96.9939 29.1588 97.9996 29.2355 98.0917C29.4735 98.368 30.3179 99.4198 31.7535 101.247C31.8917 101.193 32.0298 101.101 32.168 100.978C32.429 100.748 32.5288 100.602 32.4674 100.533C32.3139 100.356 32.0989 99.9955 31.8149 99.4351C31.5309 98.8824 31.4387 98.5369 31.5309 98.3988C32.0068 97.7079 32.7515 96.9171 33.7648 96.0343L43.7291 87.3443C44.7425 86.4538 45.6253 85.8243 46.3699 85.4482C46.5235 85.3791 46.8612 85.5172 47.3756 85.8627C47.8976 86.2158 48.2354 86.4768 48.3889 86.6457C48.4426 86.7148 48.5962 86.6457 48.8418 86.4308C49.003 86.2926 49.1182 86.1621 49.195 86.0393C47.5828 84.3657 46.654 83.3908 46.4083 83.1068C46.3315 83.0223 45.4564 81.9322 43.7906 79.8518C43.66 79.8442 43.4912 79.9286 43.2839 80.1128C43.0536 80.3124 42.9691 80.4429 43.0306 80.512C43.2302 80.7423 43.4681 81.1262 43.7445 81.6712C44.0209 82.2163 44.113 82.5771 44.0132 82.746C43.6524 83.2833 42.9231 84.0203 41.8407 84.9722ZM51.3137 88.7338C50.1315 87.7358 49.0875 86.8223 48.197 86.0086C48.0665 86.0162 47.9053 86.1391 47.7133 86.3694C47.5291 86.5843 47.4754 86.7148 47.5521 86.7762C47.7824 86.9758 48.0742 87.3289 48.4426 87.851C48.8034 88.373 48.957 88.7261 48.8879 88.9103C48.6039 89.4938 48.0204 90.3075 47.1376 91.3515L38.6395 101.393C37.4112 102.844 36.6435 103.627 36.3442 103.734C36.1215 103.819 35.73 103.734 35.1696 103.473C34.6169 103.212 34.2254 102.989 33.9951 102.79C33.9413 102.751 33.8108 102.851 33.5959 103.097C33.4193 103.312 33.3349 103.465 33.3426 103.565L36.6205 106.206C37.3421 106.782 38.2173 107.542 39.2459 108.463C40.2669 109.392 40.8811 109.945 41.096 110.129C43.9671 112.555 46.938 113.599 50.024 113.261C53.1024 112.923 55.7355 111.472 57.908 108.9C59.8502 106.597 60.7407 103.918 60.5718 100.855C60.3953 97.7923 58.8676 95.0364 55.9812 92.5952C55.6434 92.3111 54.9525 91.7354 53.9008 90.8756C52.8491 90.0235 51.9893 89.3095 51.3137 88.7338ZM49.763 92.9406C50.4386 92.1422 51.022 91.6816 51.5287 91.5588C51.9816 91.4513 53.1638 92.2113 55.0753 93.8311L55.2058 93.9463C57.2555 95.6812 58.2228 97.7155 58.0923 100.034C57.9694 102.36 57.0482 104.532 55.3363 106.544C50.8915 111.802 46.6309 112.708 42.5546 109.261C42.0787 108.862 41.4338 108.24 40.6354 107.411C39.8371 106.582 39.4762 106.045 39.553 105.814C39.7987 104.985 40.2362 104.202 40.8657 103.458L49.763 92.9406ZM72.5859 105.469C74.0982 106.275 75.1576 107.473 75.764 109.046C76.3705 110.62 76.5471 112.271 76.3091 113.99C76.0711 115.717 75.5107 117.399 74.6356 119.034C73.8679 120.469 72.916 121.69 71.7798 122.703C70.6513 123.709 69.3617 124.377 67.9261 124.699C66.4906 125.022 65.1241 124.837 63.8114 124.131C62.2991 123.325 61.2397 122.135 60.6332 120.561C60.0345 118.988 59.8502 117.33 60.0959 115.595C60.3415 113.86 60.9019 112.171 61.7847 110.536C62.9746 108.309 64.5867 106.644 66.6211 105.546C68.6554 104.456 70.6437 104.425 72.5859 105.469ZM58.384 109.584C56.8486 112.447 56.4955 115.403 57.3246 118.45C58.1537 121.498 59.9193 123.747 62.6138 125.19C65.316 126.634 68.1641 126.864 71.1734 125.866C74.1826 124.876 76.4473 122.941 77.9826 120.078C79.5179 117.214 79.8634 114.251 79.0343 111.188C78.1975 108.125 76.4319 105.868 73.7374 104.425C71.0352 102.982 68.1871 102.759 65.1855 103.772C62.1839 104.786 59.9193 106.72 58.384 109.584ZM84.9991 110.252C84.5539 110.121 84.1393 109.991 83.7555 109.852C83.3716 109.722 82.9341 109.568 82.4504 109.407C81.9668 109.238 81.5523 109.092 81.1991 108.97C81.084 109.031 80.9919 109.2 80.9151 109.461C80.8307 109.753 80.8306 109.914 80.9228 109.937C81.2068 110.021 81.583 110.206 82.0359 110.474C82.4811 110.751 82.7498 111.035 82.8343 111.326C83.0876 112.125 83.2795 113.338 83.41 114.973L85.2371 134.234C85.2601 134.387 85.3522 134.487 85.5134 134.533C85.9971 134.679 86.4961 134.426 87.0027 133.773L98.3259 119.74C99.3008 118.55 100.176 117.567 100.959 116.777C101.481 116.255 102.233 116.132 103.239 116.424C103.331 116.454 103.416 116.309 103.508 115.994C103.569 115.794 103.592 115.625 103.584 115.479C101.327 114.942 100.184 114.666 100.168 114.666C99.8535 114.574 98.679 114.167 96.637 113.453C96.5218 113.522 96.422 113.691 96.3453 113.967C96.2608 114.243 96.2685 114.397 96.3529 114.428C96.5602 114.481 96.8135 114.589 97.1206 114.735C97.4277 114.888 97.7271 115.126 98.0188 115.449C98.3105 115.779 98.4103 116.094 98.3182 116.408C98.18 116.877 97.7424 117.591 97.0055 118.565L88.4766 129.198C88.3999 129.297 88.2924 129.359 88.1542 129.374C88.0084 129.397 87.9239 129.344 87.8932 129.213C87.7781 128.261 87.6476 126.941 87.4864 125.252C86.6726 117.575 86.3579 113.414 86.5498 112.77C86.6342 112.478 86.8569 112.294 87.2177 112.201C87.5862 112.117 87.9086 112.086 88.1849 112.125C88.469 112.155 88.6839 112.194 88.8375 112.24C88.9065 112.255 88.9833 112.132 89.0754 111.856C89.1675 111.58 89.2059 111.395 89.1906 111.288C86.926 110.751 85.5288 110.405 84.9991 110.252ZM97.7501 138.571C97.7271 138.801 97.7885 138.924 97.9497 138.939L113.341 140.667L113.372 140.674C113.395 140.674 113.426 140.659 113.464 140.628C113.503 140.598 113.541 140.552 113.572 140.482C113.894 139.661 114.071 139.154 114.094 138.97C114.101 138.855 114.063 138.794 113.971 138.778L98.4487 137.036C98.2184 137.013 97.9881 137.519 97.7501 138.571ZM120.212 116.255C119.583 116.262 118.807 116.232 117.878 116.178C116.95 116.124 116.335 116.086 116.036 116.063C115.944 116.155 115.898 116.339 115.898 116.616C115.898 116.923 115.944 117.068 116.036 117.068C116.335 117.068 116.788 117.145 117.379 117.291C117.971 117.445 118.301 117.606 118.37 117.798C118.531 118.42 118.615 119.456 118.623 120.891L118.669 136.406C118.669 137.872 118.569 139.177 118.37 140.321C118.162 141.473 117.894 142.363 117.571 142.985C117.249 143.615 116.919 144.091 116.589 144.421C116.251 144.743 115.921 144.904 115.598 144.904C115.291 144.912 114.885 144.659 114.362 144.16C113.833 143.668 113.365 143.415 112.95 143.423C112.367 143.423 111.86 143.584 111.438 143.914C111.008 144.236 110.793 144.651 110.793 145.165C110.801 145.695 110.939 146.125 111.215 146.447L111.461 146.593C111.645 146.685 111.891 146.777 112.19 146.869C112.497 146.954 112.773 147 113.027 147C115.552 146.992 117.633 145.91 119.26 143.745C120.895 141.588 121.701 139.047 121.694 136.122L121.648 121.022C121.648 119.679 121.747 118.596 121.955 117.782C122.001 117.621 122.323 117.46 122.93 117.291C123.528 117.13 123.951 117.045 124.181 117.045C124.273 117.045 124.319 116.884 124.319 116.562C124.319 116.355 124.296 116.178 124.242 116.04C123.92 116.063 123.505 116.094 122.991 116.132C122.484 116.163 122.008 116.193 121.563 116.216C121.126 116.247 120.673 116.255 120.212 116.255ZM127.551 116.024C126.008 116.232 124.642 116.385 123.436 116.5C123.36 116.608 123.337 116.807 123.375 117.107C123.413 117.383 123.482 117.514 123.567 117.506C123.866 117.46 124.335 117.483 124.964 117.56C125.594 117.644 125.954 117.767 126.054 117.944C126.292 118.542 126.507 119.517 126.691 120.876L128.426 133.911C128.68 135.8 128.741 136.89 128.618 137.189C128.534 137.412 128.204 137.642 127.643 137.88C127.075 138.118 126.645 138.256 126.346 138.302C126.277 138.31 126.261 138.463 126.3 138.763C126.346 139.062 126.4 139.239 126.476 139.3L130.637 138.64C132.249 138.425 134.322 138.172 136.855 137.88C139.389 137.588 141.246 137.366 142.421 137.204C142.421 136.859 142.459 136.406 142.551 135.853C142.643 135.308 142.728 134.817 142.812 134.395C142.897 133.98 143.02 133.42 143.173 132.737C143.327 132.046 143.442 131.547 143.519 131.232C143.357 131.117 143.066 131.086 142.628 131.14C142.352 131.178 142.198 131.27 142.168 131.416C142.037 132.322 141.799 133.12 141.454 133.811C141.116 134.495 140.786 134.955 140.463 135.186C139.757 135.677 138.337 136.068 136.195 136.352L134.537 136.575C133.048 136.775 132.249 136.759 132.149 136.544C131.865 135.969 131.62 134.94 131.42 133.443L130.706 128.1C130.675 127.893 131.489 127.678 133.147 127.455C135.289 127.171 136.517 127.102 136.84 127.248C136.993 127.317 137.101 127.378 137.162 127.432C137.231 127.478 137.339 127.655 137.492 127.946C137.654 128.246 137.853 128.691 138.099 129.29C138.191 129.466 138.383 129.528 138.682 129.489C138.959 129.451 139.135 129.382 139.22 129.282L138.352 122.765C138.222 122.665 138.014 122.626 137.738 122.665C137.416 122.711 137.254 122.811 137.254 122.98C137.185 123.525 137.147 123.862 137.147 123.993C137.139 124.123 137.078 124.338 136.963 124.63C136.855 124.929 136.755 125.091 136.663 125.129C136.571 125.16 136.372 125.244 136.065 125.382C135.757 125.521 135.458 125.605 135.166 125.643L133.777 125.828L131.942 126.073C130.96 126.204 130.453 126.204 130.438 126.066L129.701 120.546C129.516 119.164 129.44 118.189 129.486 117.629C129.493 117.322 130.484 117.038 132.456 116.769L134.767 116.462C135.85 116.316 136.725 116.385 137.393 116.662C138.06 116.93 138.652 117.675 139.166 118.896C139.212 119.057 139.381 119.111 139.68 119.072C139.98 119.034 140.179 118.949 140.279 118.819C140.195 118.55 139.949 117.882 139.542 116.831C139.128 115.771 138.836 114.919 138.652 114.259C137.37 114.435 135.45 114.735 132.909 115.165C130.376 115.602 128.587 115.886 127.551 116.024ZM141.837 114.558C141.599 114.65 140.218 115.126 137.692 115.986C137.638 116.109 137.661 116.301 137.761 116.562C137.876 116.838 137.968 116.961 138.06 116.93C138.314 116.831 138.682 116.769 139.143 116.746C139.611 116.731 139.972 116.792 140.225 116.938C141.17 117.498 142.198 118.289 143.319 119.318L158.289 132.79C158.396 132.875 158.511 132.89 158.642 132.836C159.164 132.637 159.448 132.123 159.502 131.309L160.185 122.711L167.301 129.274C167.409 129.359 167.524 129.374 167.654 129.321C168.176 129.121 168.46 128.607 168.514 127.793L169.312 109.553C169.374 107.856 169.581 106.521 169.919 105.546C170.049 105.17 170.318 104.809 170.725 104.463C171.139 104.118 171.454 103.903 171.669 103.819C171.754 103.78 171.738 103.611 171.623 103.312C171.546 103.12 171.462 102.959 171.37 102.851C171.078 102.989 170.756 103.135 170.425 103.296C170.088 103.45 169.758 103.604 169.443 103.749C169.128 103.895 168.721 104.072 168.222 104.264C167.746 104.448 166.625 104.824 164.852 105.392C164.798 105.515 164.829 105.707 164.929 105.976C165.036 106.244 165.136 106.367 165.221 106.329C165.566 106.198 165.996 106.137 166.51 106.145C167.025 106.16 167.355 106.344 167.501 106.713C167.685 107.189 167.762 107.941 167.746 108.97L167.14 124.553C167.147 124.952 167.032 125.06 166.817 124.868L160.446 118.988L160.945 112.892C161.129 110.804 161.321 109.446 161.52 108.824C161.636 108.478 161.927 108.117 162.388 107.734C162.849 107.357 163.186 107.127 163.409 107.043C163.47 107.012 163.455 106.866 163.363 106.59C163.263 106.313 163.179 106.145 163.102 106.075C160.983 107.027 159.885 107.519 159.793 107.549C159.34 107.726 158.227 108.102 156.462 108.67C156.408 108.785 156.431 108.985 156.538 109.254C156.646 109.522 156.738 109.637 156.822 109.607C157.168 109.469 157.613 109.399 158.143 109.392C158.672 109.384 159.01 109.561 159.156 109.929C159.386 110.513 159.478 111.203 159.432 111.987L159.026 117.637L155.18 114.098C154.274 113.253 153.713 112.547 153.498 111.987C153.399 111.733 153.437 111.472 153.629 111.227C153.821 110.981 154.013 110.797 154.205 110.689C154.397 110.574 154.565 110.49 154.719 110.428C154.78 110.405 154.765 110.252 154.673 109.983C154.581 109.707 154.496 109.53 154.42 109.461C152.301 110.413 151.195 110.904 151.111 110.942C150.873 111.035 149.491 111.511 146.958 112.37C146.912 112.493 146.927 112.662 147.012 112.877C147.134 113.199 147.242 113.345 147.326 113.315C147.587 113.215 147.948 113.153 148.416 113.13C148.877 113.115 149.238 113.176 149.499 113.322C150.435 113.883 151.472 114.673 152.592 115.702L158.726 121.375L158.227 128.031C158.227 128.161 158.181 128.269 158.097 128.369C158.005 128.461 157.912 128.468 157.805 128.384L145.906 117.713C145.039 116.953 144.478 116.255 144.225 115.602C144.133 115.364 144.179 115.119 144.363 114.858C144.547 114.604 144.747 114.412 144.946 114.297C145.154 114.182 145.33 114.09 145.484 114.036C145.545 114.005 145.53 113.86 145.438 113.583C145.338 113.307 145.254 113.138 145.177 113.069C143.058 114.021 141.945 114.512 141.837 114.558ZM171.147 101.377C169.873 102.268 168.729 103.043 167.716 103.696C167.693 103.826 167.769 104.01 167.946 104.264C168.099 104.486 168.222 104.578 168.299 104.525C168.545 104.348 168.967 104.156 169.558 103.934C170.157 103.711 170.541 103.657 170.702 103.772C171.193 104.195 171.83 104.962 172.621 106.083L180.167 116.854C181.257 118.412 181.818 119.348 181.848 119.671C181.871 119.909 181.687 120.262 181.296 120.738C180.904 121.206 180.582 121.529 180.336 121.705C180.282 121.744 180.336 121.889 180.513 122.135C180.689 122.381 180.82 122.511 180.92 122.527L184.305 120.032C185.633 119.095 187.36 117.921 189.471 116.493C191.59 115.065 193.133 114.013 194.1 113.33C193.939 113.023 193.77 112.601 193.601 112.071C193.425 111.541 193.279 111.065 193.164 110.658C193.041 110.244 192.895 109.699 192.711 109.016C192.534 108.332 192.404 107.841 192.327 107.526C192.128 107.488 191.851 107.603 191.49 107.856C191.268 108.01 191.168 108.164 191.214 108.302C191.513 109.169 191.667 109.991 191.682 110.758C191.698 111.526 191.613 112.086 191.437 112.439C191.037 113.199 189.955 114.205 188.182 115.441L186.815 116.401C185.579 117.26 184.873 117.621 184.681 117.468C184.159 117.099 183.468 116.293 182.608 115.057L179.515 110.643C179.392 110.474 180.014 109.906 181.38 108.947C183.146 107.711 184.213 107.081 184.566 107.058C184.727 107.058 184.858 107.058 184.934 107.073C185.019 107.089 185.195 107.189 185.464 107.38C185.74 107.572 186.124 107.872 186.616 108.294C186.785 108.409 186.984 108.378 187.237 108.202C187.46 108.041 187.591 107.903 187.614 107.772L183.837 102.383C183.675 102.36 183.476 102.421 183.253 102.583C182.985 102.767 182.892 102.936 182.962 103.082C183.153 103.596 183.276 103.918 183.33 104.033C183.391 104.149 183.43 104.364 183.468 104.678C183.507 104.993 183.491 105.185 183.43 105.262C183.368 105.331 183.23 105.5 183.015 105.761C182.808 106.022 182.578 106.237 182.34 106.406L181.188 107.212L179.676 108.271C178.862 108.847 178.409 109.077 178.332 108.962L175.139 104.402C174.341 103.266 173.826 102.429 173.604 101.907C173.465 101.638 174.218 100.924 175.853 99.7806L177.757 98.4448C178.655 97.8153 179.461 97.4699 180.175 97.4085C180.896 97.3394 181.764 97.7309 182.785 98.5753C182.892 98.6981 183.077 98.6674 183.322 98.4986C183.568 98.322 183.706 98.1531 183.737 97.9919C183.537 97.7923 183.015 97.3163 182.163 96.5717C181.311 95.8194 180.651 95.1976 180.19 94.6986C179.131 95.4432 177.565 96.5947 175.515 98.1454C173.458 99.7038 171.999 100.779 171.147 101.377ZM184.213 91.4667C183.768 91.9043 183.192 92.4263 182.486 93.0404C181.787 93.6469 181.319 94.0461 181.088 94.2457C181.088 94.3762 181.188 94.5374 181.38 94.737C181.595 94.9519 181.733 95.0287 181.795 94.9596C182.01 94.7523 182.386 94.4913 182.908 94.1842C183.437 93.8772 183.791 93.762 183.967 93.8465C184.528 94.1842 185.326 94.8751 186.362 95.9345L195.582 105.315C196.918 106.674 197.624 107.503 197.701 107.818C197.77 108.048 197.639 108.417 197.325 108.924C197.01 109.43 196.734 109.799 196.503 110.021C196.457 110.075 196.534 110.206 196.749 110.42C196.956 110.635 197.11 110.743 197.209 110.743L200.142 107.718C201.263 106.613 202.767 105.185 204.641 103.435C206.521 101.692 207.888 100.395 208.748 99.5503C208.54 99.2662 208.302 98.8824 208.041 98.3834C207.788 97.8921 207.565 97.4545 207.381 97.063C207.197 96.6792 206.959 96.1648 206.667 95.52C206.375 94.8751 206.168 94.4069 206.038 94.1152C205.838 94.1075 205.585 94.261 205.27 94.5758C205.07 94.7677 205.009 94.9289 205.07 95.0671C205.508 95.8731 205.792 96.6485 205.938 97.4085C206.076 98.1608 206.091 98.7289 205.969 99.105C205.7 99.9264 204.794 101.086 203.259 102.598L202.069 103.772C200.994 104.832 200.349 105.3 200.134 105.185C199.42 104.747 198.63 104.095 197.77 103.22L188.573 93.8618C187.629 92.9022 186.946 92.0655 186.523 91.3362C186.447 91.1903 186.562 90.8449 186.877 90.3075C187.199 89.7701 187.437 89.417 187.606 89.2558C187.667 89.1867 187.591 89.0409 187.36 88.8106C187.214 88.657 187.076 88.5495 186.946 88.4881C186.731 88.7338 186.454 89.0409 186.109 89.4247C185.771 89.8085 185.456 90.1616 185.157 90.4917C184.858 90.8142 184.543 91.1366 184.213 91.4667ZM195.183 79.8211C194.814 80.3278 194.331 80.9419 193.74 81.6559C193.148 82.3775 192.749 82.8458 192.557 83.0761C192.573 83.2066 192.696 83.3524 192.926 83.5136C193.164 83.6979 193.317 83.7439 193.371 83.6672C193.548 83.4292 193.87 83.1068 194.338 82.7229C194.814 82.3314 195.144 82.1625 195.329 82.2163C195.935 82.4542 196.833 83.007 198.039 83.8821L208.671 91.6202C210.214 92.7333 211.043 93.4473 211.173 93.739C211.273 93.9539 211.212 94.3378 210.981 94.8905C210.751 95.4432 210.544 95.8501 210.352 96.1111C210.314 96.1648 210.413 96.28 210.659 96.4642C210.897 96.6408 211.074 96.7176 211.166 96.7022L213.561 93.24C214.49 91.9657 215.733 90.3075 217.299 88.2732C218.865 86.2465 220.002 84.7419 220.708 83.767C220.455 83.5213 220.163 83.1835 219.825 82.7383C219.487 82.293 219.196 81.8938 218.95 81.5407C218.704 81.1876 218.382 80.7193 217.99 80.1359C217.599 79.5448 217.322 79.1226 217.146 78.8462C216.946 78.8769 216.724 79.0765 216.463 79.4296C216.301 79.6522 216.263 79.8288 216.348 79.944C216.908 80.6732 217.322 81.3949 217.583 82.1165C217.844 82.8381 217.952 83.3985 217.898 83.7823C217.768 84.6344 217.069 85.9318 215.795 87.6821L214.812 89.0332C213.929 90.2461 213.369 90.8218 213.139 90.7374C212.363 90.4303 211.473 89.916 210.482 89.1867L199.873 81.4716C198.783 80.6809 197.977 79.967 197.44 79.3145C197.34 79.184 197.394 78.8232 197.616 78.2397C197.847 77.6563 198.023 77.2725 198.161 77.0882C198.215 77.0115 198.108 76.881 197.847 76.689C197.678 76.5662 197.524 76.4818 197.386 76.4357C197.209 76.7121 196.987 77.0652 196.718 77.5028C196.449 77.9327 196.188 78.3395 195.95 78.708C195.713 79.0765 195.452 79.445 195.183 79.8211ZM203.942 66.8321C203.243 68.2216 202.606 69.4422 202.03 70.5016C202.069 70.6244 202.222 70.7549 202.491 70.8931C202.744 71.016 202.89 71.039 202.929 70.9545C203.067 70.6859 203.343 70.3097 203.765 69.8337C204.18 69.3578 204.495 69.1275 204.687 69.1505C205.324 69.281 206.253 69.6572 207.473 70.2636L219.242 76.144C220.938 76.9961 221.882 77.5565 222.059 77.8252C222.189 78.0248 222.197 78.424 222.082 79.0228C221.959 79.6292 221.836 80.0591 221.698 80.3278C221.667 80.3969 221.79 80.489 222.059 80.6272C222.328 80.7577 222.504 80.8114 222.604 80.7807L224.393 76.9654C225.114 75.5145 226.066 73.6567 227.248 71.3998C228.431 69.1352 229.29 67.477 229.82 66.4176C229.528 66.218 229.183 65.934 228.776 65.5501C228.369 65.1663 228.016 64.8209 227.717 64.5138C227.417 64.2067 227.026 63.7999 226.542 63.2855C226.059 62.7712 225.705 62.395 225.49 62.157C225.306 62.2185 225.114 62.4488 224.915 62.8403C224.792 63.0859 224.777 63.2625 224.884 63.37C225.56 63.9918 226.082 64.6366 226.465 65.3045C226.842 65.9724 227.041 66.5097 227.049 66.9012C227.056 67.761 226.581 69.1582 225.621 71.085L224.869 72.582C224.193 73.9331 223.74 74.5856 223.502 74.5396C222.873 74.4628 221.875 74.079 220.531 73.4034L215.703 70.9929C215.518 70.9008 215.795 70.1101 216.547 68.6131C217.507 66.6863 218.144 65.6269 218.443 65.4427C218.589 65.3582 218.697 65.3045 218.773 65.2738C218.858 65.2507 219.057 65.2584 219.395 65.2891C219.725 65.3275 220.209 65.412 220.838 65.5501C221.038 65.5732 221.199 65.4427 221.337 65.174C221.46 64.9283 221.506 64.7364 221.46 64.6136L215.58 61.6734C215.426 61.7271 215.28 61.8807 215.158 62.1263C215.012 62.418 215.012 62.61 215.142 62.7021C215.557 63.0629 215.818 63.2855 215.918 63.3623C216.025 63.439 216.171 63.6079 216.348 63.8689C216.532 64.1299 216.608 64.3065 216.593 64.3986C216.57 64.4908 216.532 64.7057 216.463 65.0358C216.401 65.3659 216.309 65.6653 216.179 65.9263L215.549 67.1853L214.728 68.8358C214.282 69.7263 213.991 70.1408 213.868 70.0794L208.886 67.5921C207.642 66.9703 206.798 66.479 206.352 66.1259C206.107 65.9493 206.422 64.9744 207.32 63.1857L208.356 61.1053C208.847 60.1227 209.392 59.4395 209.991 59.0403C210.59 58.6411 211.542 58.572 212.839 58.8253C212.993 58.8791 213.139 58.7716 213.277 58.5029C213.407 58.2342 213.453 58.0193 213.4 57.8658C213.131 57.7813 212.44 57.6124 211.335 57.3591C210.229 57.1058 209.362 56.8678 208.717 56.6528C208.133 57.812 207.312 59.57 206.245 61.9114C205.178 64.2528 204.41 65.8956 203.942 66.8321ZM213.254 48.385C214.167 45.2683 216.171 44.1628 219.265 45.0687C220.554 45.4449 221.468 46.1665 222.005 47.2335C222.543 48.2929 222.696 49.2141 222.466 49.9895L222.22 50.8262C221.652 52.7684 221.046 53.6359 220.401 53.4517L216.363 52.2694C215.273 51.947 214.467 51.6937 213.952 51.5094C213.446 51.3252 213.123 51.1794 212.993 51.0872C212.862 50.9874 212.801 50.8876 212.809 50.7955C212.816 50.1891 212.962 49.3907 213.254 48.385ZM211.941 47.4254C211.757 48.0703 211.55 48.8533 211.327 49.7822C211.104 50.7034 210.897 51.5018 210.697 52.1696L209.462 56.1615C209.523 56.2767 209.699 56.3765 209.991 56.4609C210.26 56.5377 210.406 56.53 210.429 56.4456C210.513 56.1539 210.72 55.7393 211.051 55.1943C211.381 54.6492 211.642 54.3652 211.841 54.3498C212.486 54.3729 213.461 54.5725 214.781 54.9563L227.402 58.6488C229.229 59.1862 230.25 59.57 230.473 59.8003C230.642 59.9692 230.711 60.353 230.68 60.9518C230.649 61.5429 230.588 62.0035 230.503 62.3106C230.48 62.3797 230.618 62.4564 230.903 62.5409C231.24 62.633 231.448 62.6637 231.532 62.6176L232.561 58.4876C232.753 57.8197 233.236 56.3918 233.996 54.1963C233.873 54.1118 233.712 54.0428 233.513 53.989C233.206 53.8969 233.037 53.8969 233.006 53.9813C232.921 54.2731 232.691 54.7337 232.315 55.3555C231.939 55.985 231.593 56.3074 231.271 56.3381C230.772 56.3842 229.774 56.1922 228.285 55.7547L223.372 54.3191C223.195 54.2654 223.08 54.1809 223.011 54.0658C222.949 53.9506 222.926 53.8508 222.942 53.7587C222.957 53.6666 222.988 53.5284 223.042 53.3519C223.21 52.7761 223.379 52.3769 223.541 52.1543C223.717 51.9393 223.932 51.7551 224.17 51.5939C224.408 51.4404 224.753 51.2715 225.191 51.0949C225.629 50.926 226.028 50.7725 226.389 50.6497C226.749 50.5268 227.341 50.3349 228.147 50.0816C228.96 49.8206 229.667 49.5826 230.258 49.3753C234.134 48.0165 236.53 45.7826 237.443 42.6659C237.543 42.3051 237.604 41.998 237.604 41.7293C237.489 41.6295 237.336 41.5451 237.136 41.4837C236.959 41.4376 236.791 41.4223 236.637 41.453C236.246 42.7887 234.572 44.1782 231.609 45.6368C229.605 46.6194 227.271 47.3256 224.608 47.7555C224.446 47.8016 224.354 47.7095 224.331 47.4561C224.124 46.0897 223.617 44.9075 222.796 43.9095C221.975 42.9039 221.099 42.2667 220.163 41.998C219.073 41.6756 218.044 41.6449 217.077 41.8905C216.11 42.1439 215.296 42.5814 214.628 43.2033C213.96 43.8327 213.4 44.5006 212.954 45.2146C212.501 45.9285 212.164 46.6654 211.941 47.4254ZM215.196 34.9124C215.135 35.5573 215.035 36.3173 214.897 37.1924C214.751 38.0599 214.651 38.6817 214.597 39.0502C214.682 39.15 214.858 39.2114 215.135 39.2421C215.388 39.2651 215.526 39.2267 215.534 39.1346C215.557 38.9043 215.672 38.5435 215.879 38.0522C216.086 37.5609 216.301 37.1924 216.509 36.9544C216.793 36.609 217.084 36.3556 217.368 36.1868C217.653 36.0102 218.159 35.7722 218.881 35.4728C223.379 33.4922 226.135 32.3023 227.141 31.9031C228.147 31.4963 228.807 31.3044 229.129 31.3351L233.459 31.7496C234.963 31.8878 236.061 32.0874 236.76 32.3407C236.936 32.4252 237.082 32.7553 237.19 33.3387C237.297 33.9221 237.336 34.352 237.313 34.6284C237.305 34.7205 237.451 34.7819 237.75 34.8049C237.98 34.828 238.149 34.7973 238.249 34.7128C238.38 32.049 238.456 30.6825 238.464 30.6135C238.487 30.3371 238.664 29.0474 239.001 26.7521C238.863 26.6907 238.71 26.6523 238.525 26.6369C238.226 26.6062 238.065 26.6369 238.057 26.729C238.042 26.9363 237.919 27.3202 237.689 27.8806C237.458 28.441 237.266 28.7403 237.098 28.7711C236.361 28.8862 235.278 28.8785 233.85 28.7403L228.584 28.2414C228.262 28.2107 226.795 27.228 224.178 25.2935C221.568 23.359 219.618 21.885 218.343 20.8794C218.067 20.6184 217.852 20.1348 217.714 19.4208C217.568 18.7069 217.514 18.2156 217.537 17.9392C217.545 17.8471 217.415 17.7857 217.131 17.7627C216.923 17.7396 216.754 17.7473 216.609 17.778C216.585 17.9853 216.578 18.4766 216.578 19.2443C216.57 20.0119 216.539 20.7566 216.47 21.4705C216.455 21.6317 216.255 22.9905 215.872 25.5392C215.956 25.639 216.133 25.7004 216.401 25.7311C216.662 25.7541 216.8 25.7234 216.808 25.6313C216.87 24.9557 217.054 24.403 217.353 23.9654C217.653 23.5279 217.921 23.3206 218.182 23.3436C218.988 23.4204 221.621 25.2551 226.082 28.8478C226.235 28.9783 226.243 29.0935 226.12 29.2009L218.405 32.3868C217.944 32.594 217.583 32.6938 217.33 32.6708C216.939 32.6324 216.67 32.3561 216.516 31.8417C216.371 31.3274 216.317 30.8668 216.348 30.4753C216.355 30.4062 216.225 30.3525 215.964 30.3217C215.703 30.2834 215.518 30.2834 215.419 30.3217C215.296 33.1007 215.227 34.6361 215.196 34.9124Z" fill="#0A0A0A"/>
</g>
<defs>
<clipPath id="clip0_114_4">
<rect width="239.001" height="147" fill="white"/>
</clipPath>
</defs>
</svg>
